<svg width="14" height="14" viewBox="0 0 14 14" fill="none" xmlns="http://www.w3.org/2000/svg">
<path d="M6.65033 13.2708H4.43366C1.87283 13.2708 0.729492 12.1274 0.729492 9.56659V7.34992C0.729492 4.78909 1.87283 3.64575 4.43366 3.64575H6.18366C6.42283 3.64575 6.62116 3.84409 6.62116 4.08325C6.62116 4.32242 6.42283 4.52075 6.18366 4.52075H4.43366C2.34533 4.52075 1.60449 5.26159 1.60449 7.34992V9.56659C1.60449 11.6549 2.34533 12.3958 4.43366 12.3958H6.65033C8.73866 12.3958 9.47949 11.6549 9.47949 9.56659V7.81659C9.47949 7.57742 9.67782 7.37908 9.91699 7.37908C10.1562 7.37908 10.3545 7.57742 10.3545 7.81659V9.56659C10.3545 12.1274 9.21116 13.2708 6.65033 13.2708Z" fill="white"/>
<path d="M9.91693 8.2542H8.05026C6.41109 8.2542 5.74609 7.5892 5.74609 5.95003V4.08337C5.74609 3.90837 5.85109 3.74503 6.01443 3.68087C6.17776 3.61087 6.36443 3.6517 6.49276 3.7742L10.2261 7.50753C10.3486 7.63003 10.3894 7.82253 10.3194 7.98587C10.2553 8.1492 10.0919 8.2542 9.91693 8.2542ZM6.62109 5.1392V5.95003C6.62109 7.11087 6.88943 7.3792 8.05026 7.3792H8.86109L6.62109 5.1392Z" fill="white"/>
<path d="M9.09994 1.60425H6.7666C6.52743 1.60425 6.3291 1.40591 6.3291 1.16675C6.3291 0.927581 6.52743 0.729248 6.7666 0.729248H9.09994C9.3391 0.729248 9.53744 0.927581 9.53744 1.16675C9.53744 1.40591 9.3391 1.60425 9.09994 1.60425Z" fill="white"/>
<path d="M4.08301 3.35425C3.84384 3.35425 3.64551 3.15591 3.64551 2.91675C3.64551 1.70925 4.62551 0.729248 5.83301 0.729248H7.36134C7.60051 0.729248 7.79884 0.927581 7.79884 1.16675C7.79884 1.40591 7.60051 1.60425 7.36134 1.60425H5.83301C5.10967 1.60425 4.52051 2.19341 4.52051 2.91675C4.52051 3.15591 4.32217 3.35425 4.08301 3.35425Z" fill="white"/>
<path d="M11.1943 10.3542C10.9552 10.3542 10.7568 10.1559 10.7568 9.91675C10.7568 9.67758 10.9552 9.47925 11.1943 9.47925C11.8593 9.47925 12.396 8.93675 12.396 8.27758V4.66675C12.396 4.42758 12.5943 4.22925 12.8335 4.22925C13.0727 4.22925 13.271 4.42758 13.271 4.66675V8.27758C13.271 9.42091 12.3377 10.3542 11.1943 10.3542Z" fill="white"/>
<path d="M12.833 5.10412H11.083C9.53134 5.10412 8.89551 4.46829 8.89551 2.91662V1.16662C8.89551 0.991619 9.00051 0.828286 9.16384 0.764119C9.32717 0.694119 9.51384 0.734953 9.64217 0.857453L13.1422 4.35745C13.2647 4.47995 13.3055 4.67245 13.2355 4.83579C13.1713 4.99912 13.008 5.10412 12.833 5.10412ZM9.77051 2.22245V2.91662C9.77051 3.98412 10.0155 4.22912 11.083 4.22912H11.7772L9.77051 2.22245Z" fill="white"/>
</svg>
