<svg width="25" height="24" viewBox="0 0 25 24" fill="none" xmlns="http://www.w3.org/2000/svg">
<path d="M5.8189 14.5035L4.98349 17.6222L1.93011 17.6868C1.01759 15.9943 0.5 14.0578 0.5 12C0.5 10.0101 0.983937 8.13362 1.84175 6.48132H1.8424L4.56077 6.9797L5.75158 9.68176C5.50235 10.4084 5.36651 11.1884 5.36651 12C5.3666 12.8809 5.52616 13.7249 5.8189 14.5035Z" fill="#FBBB00"/>
<path d="M24.2902 9.75818C24.428 10.4841 24.4998 11.2338 24.4998 11.9999C24.4998 12.859 24.4095 13.6971 24.2374 14.5054C23.6533 17.2562 22.1269 19.6582 20.0124 21.3579L20.0118 21.3573L16.5878 21.1826L16.1032 18.1575C17.5063 17.3347 18.6028 16.047 19.1804 14.5054H12.7637V9.75818H19.274H24.2902Z" fill="#518EF8"/>
<path d="M20.0114 21.3572L20.0121 21.3579C17.9556 23.0108 15.3433 23.9999 12.4996 23.9999C7.92968 23.9999 3.95651 21.4456 1.92969 17.6867L5.81848 14.5034C6.83187 17.208 9.44088 19.1333 12.4996 19.1333C13.8143 19.1333 15.0459 18.7779 16.1028 18.1575L20.0114 21.3572Z" fill="#28B446"/>
<path d="M20.1596 2.76262L16.2721 5.94524C15.1783 5.26152 13.8853 4.86655 12.5 4.86655C9.37211 4.86655 6.7143 6.88016 5.75168 9.68173L1.84245 6.4813H1.8418C3.83895 2.63076 7.86222 0 12.5 0C15.4117 0 18.0813 1.03715 20.1596 2.76262Z" fill="#F14336"/>
</svg>
