<svg width="137" height="46" viewBox="0 0 137 46" fill="none" xmlns="http://www.w3.org/2000/svg">
<mask id="path-1-outside-1_1794_138305" maskUnits="userSpaceOnUse" x="-2" y="3" width="21" height="35" fill="black">
<rect fill="white" x="-2" y="3" width="21" height="35"/>
<path d="M0.44 36V5.2H4.268C6.38 5.2 8.052 6.916 8.052 9.028V19.984C8.052 22.096 6.38 23.812 4.268 23.812H3.52V36H0.44ZM3.828 20.16H4.268C4.488 20.16 4.664 19.984 4.664 19.764V9.248C4.664 9.028 4.488 8.852 4.268 8.852H3.828V20.16ZM16.4309 9.028V18.532C16.4309 19.368 15.9909 20.116 15.3309 20.468V20.776C15.9909 21.172 16.4309 21.92 16.4309 22.756V32.172C16.4309 34.284 14.7589 36 12.6469 36H8.81891V5.2H12.6469C14.7589 5.2 16.4309 6.916 16.4309 9.028ZM13.0429 18.356V9.248C13.0429 9.028 12.8669 8.852 12.6469 8.852H12.2069V18.796H12.6469C12.8669 18.796 13.0429 18.576 13.0429 18.356ZM13.0429 31.952V22.844C13.0429 22.624 12.8669 22.404 12.6469 22.404H12.2069V32.348H12.6469C12.8669 32.348 13.0429 32.172 13.0429 31.952Z"/>
</mask>
<path d="M0.44 36H-1.56V38H0.44V36ZM0.44 5.2V3.2H-1.56V5.2H0.44ZM3.52 23.812V21.812H1.52V23.812H3.52ZM3.52 36V38H5.52V36H3.52ZM3.828 20.16H1.828V22.16H3.828V20.16ZM3.828 8.852V6.852H1.828V8.852H3.828ZM2.44 36V5.2H-1.56V36H2.44ZM0.44 7.2H4.268V3.2H0.44V7.2ZM4.268 7.2C5.24538 7.2 6.052 7.99028 6.052 9.028H10.052C10.052 5.84172 7.51462 3.2 4.268 3.2V7.2ZM6.052 9.028V19.984H10.052V9.028H6.052ZM6.052 19.984C6.052 21.0217 5.24538 21.812 4.268 21.812V25.812C7.51462 25.812 10.052 23.1703 10.052 19.984H6.052ZM4.268 21.812H3.52V25.812H4.268V21.812ZM1.52 23.812V36H5.52V23.812H1.52ZM3.52 34H0.44V38H3.52V34ZM3.828 22.16H4.268V18.16H3.828V22.16ZM4.268 22.16C5.59257 22.16 6.664 21.0886 6.664 19.764H2.664C2.664 18.8794 3.38343 18.16 4.268 18.16V22.16ZM6.664 19.764V9.248H2.664V19.764H6.664ZM6.664 9.248C6.664 7.92343 5.59257 6.852 4.268 6.852V10.852C3.38343 10.852 2.664 10.1326 2.664 9.248H6.664ZM4.268 6.852H3.828V10.852H4.268V6.852ZM1.828 8.852V20.16H5.828V8.852H1.828ZM15.3309 20.468L14.3897 18.7033L13.3309 19.268V20.468H15.3309ZM15.3309 20.776H13.3309V21.9084L14.3019 22.491L15.3309 20.776ZM8.81891 36H6.81891V38H8.81891V36ZM8.81891 5.2V3.2H6.81891V5.2H8.81891ZM12.2069 8.852V6.852H10.2069V8.852H12.2069ZM12.2069 18.796H10.2069V20.796H12.2069V18.796ZM12.2069 22.404V20.404H10.2069V22.404H12.2069ZM12.2069 32.348H10.2069V34.348H12.2069V32.348ZM14.4309 9.028V18.532H18.4309V9.028H14.4309ZM14.4309 18.532C14.4309 18.5997 14.4129 18.6527 14.3937 18.6862C14.3737 18.721 14.3634 18.7173 14.3897 18.7033L16.2721 22.2327C17.6365 21.505 18.4309 20.045 18.4309 18.532H14.4309ZM13.3309 20.468V20.776H17.3309V20.468H13.3309ZM14.3019 22.491C14.3248 22.5047 14.3585 22.5341 14.3868 22.5842C14.414 22.6324 14.4309 22.6907 14.4309 22.756H18.4309C18.4309 21.2214 17.6256 19.8205 16.3599 19.061L14.3019 22.491ZM14.4309 22.756V32.172H18.4309V22.756H14.4309ZM14.4309 32.172C14.4309 33.2097 13.6243 34 12.6469 34V38C15.8935 38 18.4309 35.3583 18.4309 32.172H14.4309ZM12.6469 34H8.81891V38H12.6469V34ZM10.8189 36V5.2H6.81891V36H10.8189ZM8.81891 7.2H12.6469V3.2H8.81891V7.2ZM12.6469 7.2C13.6243 7.2 14.4309 7.99028 14.4309 9.028H18.4309C18.4309 5.84172 15.8935 3.2 12.6469 3.2V7.2ZM15.0429 18.356V9.248H11.0429V18.356H15.0429ZM15.0429 9.248C15.0429 7.92343 13.9715 6.852 12.6469 6.852V10.852C11.7623 10.852 11.0429 10.1326 11.0429 9.248H15.0429ZM12.6469 6.852H12.2069V10.852H12.6469V6.852ZM10.2069 8.852V18.796H14.2069V8.852H10.2069ZM12.2069 20.796H12.6469V16.796H12.2069V20.796ZM12.6469 20.796C13.4519 20.796 14.0698 20.3941 14.4388 19.9684C14.8029 19.5483 15.0429 18.9806 15.0429 18.356H11.0429C11.0429 17.9514 11.1949 17.6037 11.416 17.3486C11.642 17.0879 12.0619 16.796 12.6469 16.796V20.796ZM15.0429 31.952V22.844H11.0429V31.952H15.0429ZM15.0429 22.844C15.0429 22.2194 14.8029 21.6517 14.4388 21.2316C14.0698 20.8059 13.4519 20.404 12.6469 20.404V24.404C12.0619 24.404 11.642 24.1121 11.416 23.8514C11.1949 23.5963 11.0429 23.2486 11.0429 22.844H15.0429ZM12.6469 20.404H12.2069V24.404H12.6469V20.404ZM10.2069 22.404V32.348H14.2069V22.404H10.2069ZM12.2069 34.348H12.6469V30.348H12.2069V34.348ZM12.6469 34.348C13.9715 34.348 15.0429 33.2766 15.0429 31.952H11.0429C11.0429 31.0674 11.7623 30.348 12.6469 30.348V34.348Z" fill="white" mask="url(#path-1-outside-1_1794_138305)"/>
<path d="M24.92 35V12.6H34.04C38.904 12.6 42.136 15.512 42.136 20.056C42.136 24.568 38.904 27.48 34.04 27.48H29.72V35H24.92ZM33.592 16.6H29.72V23.48H33.592C35.832 23.48 37.272 22.168 37.272 20.056C37.272 17.912 35.832 16.6 33.592 16.6ZM59.1855 31.192H59.6975V35H57.3935C55.0575 35 54.3215 33.88 54.3535 32.312C53.2015 34.136 51.5375 35.192 48.9775 35.192C45.4255 35.192 42.8655 33.496 42.8655 30.36C42.8655 26.872 45.4895 24.888 50.4175 24.888H53.6815V24.088C53.6815 22.616 52.6255 21.656 50.7375 21.656C48.9775 21.656 47.7935 22.456 47.6015 23.672H43.2495C43.5695 20.472 46.5135 18.36 50.8655 18.36C55.4735 18.36 58.1295 20.408 58.1295 24.344V30.168C58.1295 31.032 58.4815 31.192 59.1855 31.192ZM53.6815 28.216V27.896H50.3855C48.4975 27.896 47.4095 28.664 47.4095 30.04C47.4095 31.192 48.3375 31.928 49.8415 31.928C52.2095 31.928 53.6495 30.456 53.6815 28.216ZM65.429 35.096L59.093 18.552H63.893L67.893 30.264L71.797 18.552H76.629L69.333 37.336C68.309 40.056 67.477 41.4 64.917 41.4H60.533V37.592H63.029C64.181 37.592 64.565 37.304 65.013 36.184L65.429 35.096ZM78.5138 35V12.6H87.0258C92.2098 12.6 95.2178 14.776 95.2178 18.52C95.2178 21.336 93.5538 22.936 90.9938 23.48C93.9698 23.864 96.0178 25.432 96.0178 28.632C96.0178 32.536 92.9458 35 87.4418 35H78.5138ZM87.1538 16.376H83.3138V21.816H87.1538C89.2018 21.816 90.4178 20.76 90.4178 19.096C90.4178 17.432 89.2338 16.376 87.1538 16.376ZM87.4738 25.528H83.3138V31.192H87.4738C89.7778 31.192 91.0898 30.136 91.0898 28.408C91.0898 26.584 89.7458 25.528 87.4738 25.528ZM100.809 16.792C99.3368 16.792 98.1848 15.704 98.1848 14.264C98.1848 12.792 99.3368 11.704 100.809 11.704C102.281 11.704 103.433 12.792 103.433 14.264C103.433 15.704 102.281 16.792 100.809 16.792ZM98.5368 35V18.552H103.081V35H98.5368ZM106.193 35V12.6H110.705V35H106.193ZM113.849 35V12.6H118.361V35H113.849ZM120.738 29.528H125.026C125.186 30.968 126.434 31.96 128.642 31.96C130.53 31.96 131.682 31.352 131.682 30.2C131.682 28.856 130.562 28.76 127.906 28.408C124.066 27.96 121.09 27.096 121.09 23.704C121.09 20.44 123.938 18.296 128.161 18.328C132.578 18.328 135.618 20.28 135.842 23.64H131.522C131.394 22.328 130.146 21.528 128.322 21.528C126.562 21.528 125.41 22.168 125.41 23.224C125.41 24.472 126.818 24.6 129.186 24.888C132.962 25.272 136.097 26.136 136.097 29.848C136.097 33.112 133.026 35.192 128.61 35.192C124.034 35.192 120.93 33.048 120.738 29.528Z" fill="white"/>
</svg>
