<svg width="21" height="16" viewBox="0 0 21 16" fill="none" xmlns="http://www.w3.org/2000/svg">
<path d="M9.5 15.312V13.312H17.5V6.21201C17.5 5.24535 17.3167 4.33701 16.95 3.48701C16.5833 2.63701 16.0833 1.89535 15.45 1.26201C14.8167 0.62868 14.075 0.12868 13.225 -0.237987C12.375 -0.604653 11.4667 -0.787986 10.5 -0.787986C9.53333 -0.787986 8.625 -0.604653 7.775 -0.237987C6.925 0.12868 6.18333 0.62868 5.55 1.26201C4.91667 1.89535 4.41667 2.63701 4.05 3.48701C3.68333 4.33701 3.5 5.24535 3.5 6.21201V12.312H2.5C1.95 12.312 1.47933 12.116 1.088 11.724C0.696667 11.332 0.500667 10.8613 0.5 10.312V8.31201C0.5 7.92868 0.591667 7.59135 0.775 7.30001C0.958333 7.00868 1.2 6.77101 1.5 6.58701L1.575 5.26201C1.725 4.04535 2.071 2.94535 2.613 1.96201C3.155 0.97868 3.83 0.145347 4.638 -0.537987C5.446 -1.22132 6.35433 -1.75065 7.363 -2.12599C8.37167 -2.50132 9.41733 -2.68865 10.5 -2.68799C11.6 -2.68799 12.6543 -2.50032 13.663 -2.12499C14.6717 -1.74965 15.5757 -1.21632 16.375 -0.524987C17.175 0.166347 17.846 0.999681 18.388 1.97501C18.93 2.95035 19.2757 4.03768 19.425 5.23701L19.5 6.53701C19.8 6.68701 20.0417 6.90801 20.225 7.20001C20.4083 7.49201 20.5 7.81268 20.5 8.16201V10.462C20.5 10.8287 20.4083 11.1537 20.225 11.437C20.0417 11.7203 19.8 11.937 19.5 12.087V13.312C19.5 13.862 19.304 14.333 18.912 14.725C18.52 15.117 18.0493 15.3127 17.5 15.312H9.5ZM7.5 8.31201C7.21667 8.31201 6.979 8.21601 6.787 8.02401C6.595 7.83201 6.49933 7.59468 6.5 7.31201C6.5 7.02868 6.596 6.79101 6.788 6.59901C6.98 6.40701 7.21733 6.31135 7.5 6.31201C7.78333 6.31201 8.021 6.40801 8.213 6.60001C8.405 6.79201 8.50067 7.02935 8.5 7.31201C8.5 7.59535 8.404 7.83301 8.212 8.02501C8.02 8.21701 7.78267 8.31268 7.5 8.31201ZM13.5 8.31201C13.2167 8.31201 12.979 8.21601 12.787 8.02401C12.595 7.83201 12.4993 7.59468 12.5 7.31201C12.5 7.02868 12.596 6.79101 12.788 6.59901C12.98 6.40701 13.2173 6.31135 13.5 6.31201C13.7833 6.31201 14.021 6.40801 14.213 6.60001C14.405 6.79201 14.5007 7.02935 14.5 7.31201C14.5 7.59535 14.404 7.83301 14.212 8.02501C14.02 8.21701 13.7827 8.31268 13.5 8.31201ZM4.525 6.76201C4.45833 5.77868 4.596 4.88701 4.938 4.08701C5.28 3.28701 5.73833 2.60768 6.313 2.04901C6.88767 1.49101 7.55 1.06201 8.3 0.762013C9.05 0.462013 9.8 0.312013 10.55 0.312013C12.0667 0.312013 13.3793 0.791347 14.488 1.75001C15.5967 2.70868 16.2673 3.90401 16.5 5.33601C14.9333 5.32001 13.5167 4.89935 12.25 4.07401C10.9833 3.24868 10.025 2.17801 9.375 0.862014C9.10833 2.21201 8.54567 3.40801 7.687 4.45001C6.82833 5.49201 5.77367 6.26268 4.525 6.76201Z" fill="white"/>
</svg>
