<svg width="339" height="541" viewBox="0 0 339 541" fill="none" xmlns="http://www.w3.org/2000/svg">
<path fill-rule="evenodd" clip-rule="evenodd" d="M30 0C13.4315 0 0 13.4315 0 30V89.8912C8.306 94.2483 14 103.178 14 113.486C14 123.793 8.306 132.723 0 137.08V541H3C3 532.414 9.71573 525.454 18 525.454C26.2843 525.454 33 532.414 33 541H42C42 532.414 48.7157 525.454 57 525.454C65.2843 525.454 72 532.414 72 541H81C81 532.414 87.7157 525.454 96 525.454C104.284 525.454 111 532.414 111 541H120C120 532.414 126.716 525.454 135 525.454C143.284 525.454 150 532.414 150 541H159C159 532.414 165.716 525.454 174 525.454C182.284 525.454 189 532.414 189 541H198C198 532.414 204.716 525.454 213 525.454C221.284 525.454 228 532.414 228 541H233C233 532.414 239.716 525.454 248 525.454C256.284 525.454 263 532.414 263 541H270C270 532.414 276.716 525.454 285 525.454C293.284 525.454 300 532.414 300 541H305C305 532.414 311.716 525.454 320 525.454C328.284 525.454 335 532.414 335 541H339V137.08C330.694 132.723 325 123.793 325 113.486C325 103.178 330.694 94.2483 339 89.8912V30C339 13.4315 325.569 0 309 0H30Z" fill="#D9D9D9" fill-opacity="0.2"/>
</svg>
