<svg width="17" height="20" viewBox="0 0 17 20" fill="none" xmlns="http://www.w3.org/2000/svg">
<path d="M14.6663 10.4165V5.6665C14.6663 4.26637 14.6663 3.56631 14.3939 3.03153C14.1542 2.56112 13.7717 2.17867 13.3013 1.93899C12.7665 1.6665 12.0665 1.6665 10.6663 1.6665H5.33301C3.93288 1.6665 3.23281 1.6665 2.69803 1.93899C2.22763 2.17867 1.84517 2.56112 1.60549 3.03153C1.33301 3.56631 1.33301 4.26637 1.33301 5.6665V14.3332C1.33301 15.7333 1.33301 16.4334 1.60549 16.9681C1.84517 17.4386 2.22763 17.821 2.69803 18.0607C3.23281 18.3332 3.93288 18.3332 5.33301 18.3332H7.99967M9.66634 9.1665H4.66634M6.33301 12.4998H4.66634M11.333 5.83317H4.66634M10.083 15.8332L11.7497 17.4998L15.4997 13.7498" stroke="#909090" stroke-width="1.5" stroke-linecap="round" stroke-linejoin="round"/>
</svg>
